<?xml version="1.0" encoding="UTF-8"?>
<svg id="Layer_2" xmlns="http://www.w3.org/2000/svg" viewBox="0 0 221.04 269.71">
  <g id="Layer_1-2" data-name="Layer_1">
    <path d="M170.44,123.74c22.52,8.94,38.25,23.65,46.19,45.9,5.43,15.22,5.76,30.72,1.42,46.26-2.14,7.66-6.85,10.93-12.86,9.44-6.74-1.68-9.21-6.67-7.29-14.74,7.3-30.78-7.48-58.61-36.08-67.13-5.68-1.69-11.86-2.32-17.82-2.38-24.64-.26-49.28-.11-73.92-.11-1.69,0-3.38.03-5.07,0-8.14-.18-12.8-4.12-12.64-10.67.16-6.31,4.57-9.98,12.46-10.01,18.84-.08,37.69.18,56.53-.1,20.38-.3,36.58-8.54,46.24-27.02,16.21-31.01-4.05-69.37-38.97-71.39-31.54-1.82-63.26-.65-94.9-.8-4.06-.02-8.12,0-12.7,0v226.95c2.38.14,4.71.38,7.04.38,38.89.03,77.79.27,116.68-.18,8.25-.09,16.59-2.29,24.68-4.33,6.93-1.75,12.38-.41,14.74,5.01,2.65,6.09.55,12.1-6.68,14.25-9.84,2.94-20.1,6.08-30.22,6.23-44.68.67-89.38.33-134.07.29-9.49,0-13.16-3.66-13.17-13.02C0,175.39,0,94.22.01,13.05.02,3.37,3.36.09,13.07.08c36.48-.02,72.96-.2,109.43.06,30.47.22,53.12,14.25,65.46,41.92,12.37,27.74,7.17,53.74-12.9,76.63-1.27,1.44-2.59,2.83-4.62,5.04Z"/>
  </g>
</svg>