<?xml version="1.0" encoding="UTF-8"?>
<svg id="Layer_2" xmlns="http://www.w3.org/2000/svg" viewBox="0 0 905.63 525.26">
  <g id="Layer_1-2" data-name="Layer_1">
    <path d="M510.4,123.74c22.52,8.94,38.25,23.65,46.19,45.9,5.43,15.22,5.76,30.72,1.42,46.26-2.14,7.66-6.85,10.93-12.86,9.44-6.74-1.68-9.21-6.67-7.29-14.74,7.3-30.78-7.48-58.61-36.08-67.13-5.68-1.69-11.86-2.32-17.82-2.38-24.64-.26-49.28-.11-73.92-.11-1.69,0-3.38.03-5.07,0-8.14-.18-12.8-4.12-12.64-10.67.16-6.31,4.57-9.98,12.46-10.01,18.84-.08,37.69.18,56.53-.1,20.38-.3,36.58-8.54,46.24-27.02,16.21-31.01-4.05-69.37-38.97-71.39-31.54-1.82-63.26-.65-94.9-.8-4.06-.02-8.12,0-12.7,0v226.95c2.38.14,4.71.38,7.04.38,38.89.03,77.79.27,116.68-.18,8.25-.09,16.59-2.29,24.68-4.33,6.93-1.75,12.38-.41,14.74,5.01,2.65,6.09.55,12.1-6.68,14.25-9.84,2.94-20.1,6.08-30.22,6.23-44.68.67-89.38.33-134.07.29-9.49,0-13.16-3.66-13.17-13.02-.03-81.17-.04-162.34-.02-243.51,0-9.69,3.35-12.97,13.06-12.97,36.48-.02,72.96-.2,109.43.06,30.47.22,53.12,14.25,65.46,41.92,12.37,27.74,7.17,53.74-12.9,76.63-1.27,1.44-2.59,2.83-4.62,5.04Z"/>
    <path d="M82.26,392.64c11.34,9.6,17.49,20.2,17.1,34.09-.58,20.39-17.17,37.12-37.62,37.31-17.13.16-34.27.08-51.4.02-8.32-.03-10.3-1.95-10.31-10.23-.04-39.09-.02-78.19.03-117.28.01-8.26,2.09-10.32,10.2-10.36,15.69-.07,31.37.03,47.06-.09,16.66-.13,28.99,7.03,35.65,22.27,6.71,15.35,4.46,29.7-7.43,42.04-.66.69-1.6,1.1-3.28,2.22ZM14.85,340.86v108.75c16.47,0,32.39.28,48.29-.2,3.81-.11,7.97-2.1,11.23-4.31,8.59-5.83,12.04-16.42,9.26-26.2-2.95-10.35-11.57-16.94-22.76-18.34-3.35-.42-7.72-1.98-9.39-4.5-3.17-4.77,1.1-9.01,9.13-9.74,12.81-1.17,21.21-9.35,21.5-20.95.31-12.9-7.44-23.5-19.85-24.28-15.59-.99-31.29-.24-47.4-.24Z"/>
    <path d="M860.1,423.33c7.17,7.63,14.36,15.32,21.59,22.95,1.66,1.75,3.49,3.34,5.22,5.01,3.5,3.38,4.48,7.83.64,10.59-2.23,1.61-7.48,1.28-10.03-.32-4.61-2.89-8.23-7.36-12.23-11.21-13.56-13.01-27.11-26.04-41.56-39.93-.29,2.86-.61,4.59-.62,6.32-.1,13.03-.09,26.07-.21,39.1-.04,4.61-1.69,8.18-7.02,8.19-5.26.01-7.15-3.41-7.16-8.08-.03-27.76-.54-55.53.19-83.26.57-21.56,15.1-39.52,34.14-44.61,21.17-5.66,43.11,2.49,54.48,20.23,11.46,17.89,10.72,40.2-1.97,56.19-7.86,9.91-18.38,15.3-30.61,17.68-1.42.27-2.86.37-4.27.67-.4.08-.72.57-.58.45ZM891.28,375.94c.05-19.72-14.6-34.87-33.8-34.97-18.84-.1-33.85,15.5-33.74,35.08.1,18.63,14.98,33.78,33.38,33.98,18.4.2,34.12-15.48,34.17-34.09Z"/>
    <path d="M416.32,458.98c-1.44,1.44-3.21,4.71-5.16,4.82-2.81.15-6.49-1.29-8.44-3.34-2.17-2.29-3.36-5.92-4.01-9.16-1.32-6.61-5.17-7.78-11.33-7.64-18.35.42-36.72.39-55.07.03-5.34-.11-8.01,1.6-9.29,6.6-.77,3.02-2.25,5.84-3.32,8.79-1.72,4.77-5.3,6.4-9.76,4.83-4.88-1.72-5.29-5.66-3.57-10.11,7.31-18.89,14.58-37.79,21.89-56.68,8.18-21.13,16.21-42.33,24.75-63.31,1.23-3.02,4.89-6.89,7.55-6.98,2.62-.09,6.72,3.59,7.88,6.52,15.69,39.68,30.99,79.52,46.35,119.34.6,1.55.81,3.26,1.53,6.3ZM360.79,353.22c-10.1,26.07-19.61,50.63-29.33,75.72h58.48c-9.64-25.05-19.03-49.44-29.15-75.72Z"/>
    <path d="M132.62,340.56c0,13.72-.02,26.48.02,39.23,0,2.13.22,4.26.39,7.36,11.11,0,21.9,0,32.69,0,2.42,0,4.83,0,7.25.02,4.89.02,7.89,2.25,7.91,7.34.02,4.95-3.35,6.79-7.63,6.86-10.15.18-20.3.07-30.44.08-3.09,0-6.17,0-9.72,0v48.28c2.8,0,5.37,0,7.94,0,17.4.02,34.79.02,52.19.07,5.1.01,8.75,2.5,8.58,7.68-.16,4.85-3.75,6.67-8.62,6.64-21.99-.12-43.98-.13-65.96,0-6.45.04-9.06-2.72-9.04-9.19.13-39.87.13-79.74.01-119.6-.02-6.49,2.84-9.21,9.15-9.19,21.75.07,43.49.1,65.24-.04,5.11-.03,9.01,1.7,9.15,6.93.15,5.68-3.86,7.6-9.29,7.57-19.55-.12-39.11-.05-59.81-.05Z"/>
    <path d="M689.94,376.51c0-13.28.04-26.56-.03-39.84-.03-5.37,1.16-10.26,7.51-10.08,5.76.16,7.01,4.7,6.98,9.87-.1,24.63-.22,49.26.06,73.88.07,6.18.7,12.65,2.63,18.47,5.3,15.96,19.26,24.19,36.23,22.34,15.09-1.65,28.65-14.47,30.07-29.87,1.17-12.7,1.05-25.54,1.19-38.31.17-15.93.04-31.87,0-47.81-.01-4.67,1.59-8.37,6.67-8.61,4.94-.23,7.62,2.99,7.6,7.77-.08,28.48.92,57.03-.84,85.42-1.81,29.3-24.44,47.44-53.57,45.86-25.46-1.39-44.23-22.72-44.49-50.69-.12-12.8-.02-25.59-.02-38.39Z"/>
    <path d="M533.52,413.86c0,14.25,0,28.5,0,42.75,0,4.91-2.36,7.93-7.39,7.85-4.72-.08-6.78-3.08-6.75-7.66.02-1.93-.02-3.86-.02-5.8-.01-22.94.24-45.89-.19-68.83-.13-6.86-1.06-14.11-3.54-20.43-6.51-16.57-22.16-24.36-39.88-21.01-15.48,2.92-26.46,16.97-26.65,35.07-.27,26.32.08,52.65-.3,78.97-.05,3.15-2.19,7.68-4.73,9.07-5.08,2.77-9.4-1.47-9.41-8.69-.07-26.81-.25-53.62.15-80.42.09-6.13,1.54-12.51,3.65-18.31,7.5-20.61,25.45-31.69,48.21-30.44,21.85,1.2,40.08,15,44.4,36,2.49,12.12,1.84,24.9,2.44,37.39.23,4.82.04,9.66.04,14.49h-.03Z"/>
    <path d="M550.06,387.76c.57-20.15,13.03-41.75,38.2-54.5,25.51-12.91,50.49-9.86,73.62,7,2.52,1.84,5.6,3.75,6.76,6.37,1.2,2.71,1.65,7.65.07,9.17-1.72,1.65-6.74,1.66-9.27.34-7.41-3.85-13.78-10.1-21.47-12.94-30.86-11.43-64.43,6.84-72.48,38.66-7.93,31.34,12.52,63.7,44.35,68.93,16.86,2.77,32.7-.73,46-12.41,1.09-.96,2.05-2.68,3.21-2.81,3.26-.37,7.46-1.34,9.69.21,3.71,2.59,2.77,6.79-.42,10.01-11.74,11.79-26.18,18.22-42.51,19.63-41.33,3.58-75.68-28.18-75.75-77.66Z"/>
    <path d="M257.32,340.05c-11.57,0-22.62.27-33.63-.18-2.89-.12-6.79-1.7-8.3-3.92-3.25-4.77.88-9.63,7.92-9.66,18.82-.09,37.64-.06,56.46-.06,8.69,0,17.37.1,26.06-.01,4.84-.06,8.05,1.69,8.22,6.88.18,5.47-3.43,6.94-8.07,6.95-11.53.03-23.06,0-35.43,0,0,3.44,0,6.01,0,8.58,0,34.75,0,69.49,0,104.24,0,1.93.7,4.36-.21,5.68-1.69,2.47-4.13,5.57-6.64,5.96-1.76.27-4.95-3.16-6.02-5.59-1.07-2.44-.35-5.69-.35-8.58,0-33.78,0-67.56,0-101.34v-8.95Z"/>
    <path d="M167.17,494.62c5.75,7.05,11.51,14.11,17.26,21.16.56-.11,1.12-.21,1.68-.32v-19.9c.7.01,1.4.02,2.09.04v29.66c-6.82-8.19-12.45-14.96-19.3-23.19-.38,8.05-.7,14.66-1.02,21.28-.77-.05-1.54-.11-2.31-.16v-27.65c.53-.31,1.06-.61,1.58-.92Z"/>
    <path d="M15.46,523.77c-8.33-.08-14.64-6.25-14.73-14.41-.1-8.5,6.4-14.8,15.17-14.7,8.22.1,14.91,6.53,15,14.42.09,8.06-6.96,14.77-15.44,14.69ZM27.24,509.42c.08-6.85-4.84-11.94-11.57-11.97-6.64-.03-11.83,5.22-11.76,11.88.07,6.44,4.87,11.34,11.31,11.55,6.81.23,11.93-4.66,12.01-11.46Z"/>
    <path d="M288.01,509.04c.07,8.39-6,14.56-14.46,14.68-8.51.12-15.09-5.87-15.34-13.97-.26-8.5,6.3-15.11,14.98-15.1,8.56.01,14.74,6.02,14.81,14.39ZM284.98,508.87c-.17-6.47-5.75-11.68-12.26-11.44-6.54.24-11.53,5.79-11.19,12.44.33,6.42,5.31,11.06,11.83,11.02,6.58-.04,11.8-5.44,11.62-12.02Z"/>
    <path d="M435.59,512.16c-3.18-.39-6.3-.77-9.42-1.15.03-.42.06-.85.09-1.27h12.65c-.52,8.29-4.36,13.05-11.02,13.91-7.96,1.03-14.82-3.22-16.83-10.41-1.99-7.11,1.36-14.27,8.12-17.38,6.23-2.86,12.27-1.4,15.97,3.85-13.62-2.99-19.14-1.28-21.09,6.52-1.53,6.12,2.06,12.52,8.03,14.3,6.48,1.93,11.14-.86,13.49-8.37Z"/>
    <path d="M369.84,523.71c-8.23-.09-14.96-6.66-14.93-14.55.03-8.2,7.12-14.74,15.73-14.51,8.23.23,14.66,6.9,14.41,14.95-.25,8.18-6.74,14.2-15.21,14.11ZM370.19,497.42c-6.56-.03-12.04,5.41-11.93,11.83.11,6.34,5.13,11.51,11.37,11.7,6.56.2,12.11-5,12.3-11.51.18-6.43-5.26-12-11.74-12.03Z"/>
    <path d="M480.77,494.65c8.49.05,14.64,6.13,14.66,14.47.02,8.41-6.07,14.53-14.54,14.62-8.82.09-15.17-6.17-15.06-14.86.11-8.28,6.41-14.29,14.94-14.24ZM480.51,520.9c6.59.11,11.97-5.19,11.92-11.74-.04-6.32-5-11.49-11.23-11.7-6.76-.23-12.05,4.68-12.26,11.38-.21,6.7,4.82,11.95,11.56,12.06Z"/>
    <path d="M57.86,523.31v-27.86c7.86-.71,16.41-2.41,21.21,4.91,2.65,4.05,3.32,11.62,1.34,16.01-4.1,9.14-13.54,7.24-22.55,6.94ZM60.82,520.52c7.07.12,14.22,1.31,16.92-6.02,1.34-3.65.84-9.44-1.3-12.58-3.5-5.14-9.7-5.01-15.62-3.33v21.93Z"/>
    <path d="M122.84,523.76c-8.47-.08-14.63-6.18-14.66-14.54-.03-8.54,6.56-14.82,15.33-14.59,8.28.21,14.65,6.78,14.47,14.91-.18,8.02-6.87,14.3-15.15,14.22ZM134.69,509.35c.1-6.57-5.23-11.97-11.76-11.95-6.45.02-11.9,5.54-11.85,12,.05,6.2,5.19,11.34,11.52,11.51,6.63.19,12-4.95,12.1-11.57Z"/>
    <path d="M893.96,508.79c.12,8.47-5.85,14.74-14.24,14.96-8.76.22-15.55-6.08-15.61-14.5-.06-8.09,6.46-14.52,14.8-14.6,8.57-.08,14.93,5.89,15.04,14.14ZM891.09,509.27c.09-6.34-5.49-11.84-12.01-11.83-6.37,0-11.37,4.87-11.59,11.28-.24,6.75,4.74,12.08,11.39,12.19,6.54.11,12.12-5.21,12.21-11.64Z"/>
    <path d="M615.89,501.17c-3.39-1.23-6.73-3.17-10.18-3.39-1.8-.11-3.79,2.81-5.69,4.37,1.55,1.54,2.86,3.64,4.72,4.5,2.78,1.27,6.18,1.21,8.92,2.53,5.79,2.8,6.47,9.63.81,12.42-3.69,1.82-8.78,1.83-12.99,1.12-2.17-.37-3.78-4.06-6.15-6.85,5.54,2.06,9.41,4.12,13.48,4.7,1.63.23,4.94-2.57,5.26-4.38.27-1.55-2.28-4.28-4.22-5.36-2.2-1.23-5.15-1.03-7.67-1.78-5.32-1.59-7.63-6.97-3.83-10.44,2.62-2.39,7.18-3.64,10.83-3.57,2.71.05,5.37,3.05,8.05,4.74-.45.47-.9.93-1.36,1.4Z"/>
    <path d="M690,522.61v-26.84h17.77c.03.53.05,1.06.08,1.59-4.59.24-9.18.49-14.24.75v9.17c4.18.35,8.3.69,12.42,1.03.01.63.02,1.26.04,1.89-3.99.29-7.98.58-12.46.91v9.54h14.45c.02.65.04,1.3.06,1.95h-18.12Z"/>
    <path d="M838.77,513.34c-4.04,8.76-9.5,11.62-16.81,10.28-6.29-1.16-11.6-7.19-12.03-13.66-.41-6.27,4.37-12.97,10.58-14.8,7.24-2.14,13.29.41,16.9,8.47-1.44-1.01-2.95-1.94-4.31-3.05-5.52-4.51-12.36-4.23-16.77.76-3.88,4.39-3.81,11.56.14,15.85,4.44,4.81,11.42,5,16.84.47,1.3-1.09,2.65-2.11,5.46-4.34Z"/>
    <path d="M556.43,507.55c4.66.2,8.57.37,12.48.55.03.67.06,1.35.09,2.02-3.97.34-7.94.68-12.44,1.07v9.43h14.94c0,.68.02,1.36.02,2.05h-18v-27.17h16.99l.16,1.75c-4.63.31-9.26.62-14.25.96v9.34Z"/>
    <path d="M224.02,523.11v-24.98c-3.45-.33-6.02-.58-8.58-.82v-1.36h19.77c.07.37.14.74.21,1.1-2.38.35-4.76.71-8.45,1.26v24.83c-.98-.01-1.96-.02-2.94-.03Z"/>
    <path d="M741.78,523.11v-24.73c-3.39-.44-6.12-.8-8.86-1.15l.03-1.33h19.86c.07.39.14.79.21,1.18-2.4.35-4.8.7-8.49,1.23v24.82c-.92,0-1.84-.01-2.76-.02Z"/>
    <path d="M643.49,495.71h19.5c.04.44.08.89.13,1.33-2.42.37-4.84.73-8.58,1.29v24.81c-.79-.01-1.58-.02-2.37-.03v-24.5c-3.6-.66-6.21-1.15-8.82-1.63.05-.42.09-.85.14-1.27Z"/>
    <path d="M332.08,523h-16v-27.41l1.9-.07v24.57c5.49.39,9.84.69,14.19,1-.03.63-.06,1.27-.09,1.9Z"/>
    <path d="M782.11,496.03v26.93l-1.51-.02v-26.99l1.51.08Z"/>
  </g>
</svg>